<svg width="124" height="30" viewBox="0 0 124 30" fill="none" xmlns="http://www.w3.org/2000/svg">
<path d="M12.942 4.15578C12.5291 3.91391 12.006 3.95891 11.6426 4.27053L2.46712 12.0972C-0.822375 15.3867 -0.822375 20.7394 2.46712 24.0289C4.11075 25.6725 6.26962 26.4949 8.42962 26.4949C10.5941 26.4949 12.7609 25.6692 14.4112 24.0177L22.1771 16.0347C22.4921 15.7107 22.5821 15.2292 22.4066 14.8129C22.2322 14.3967 21.8239 14.1255 21.3716 14.1255H17.658L22.3549 5.67228C22.599 5.23241 22.5214 4.68566 22.167 4.33016C21.8126 3.97466 21.2636 3.89703 20.826 4.14228L12.8272 8.58603L13.4752 5.34716C13.5686 4.87578 13.3549 4.39878 12.942 4.15578ZM13.4966 18.063C13.4966 20.8587 11.2297 23.1255 8.43412 23.1255C5.6385 23.1255 3.37162 20.8587 3.37162 18.063C3.37162 16.2968 4.2795 14.7454 5.64975 13.8398C5.6385 13.9343 5.62162 14.0277 5.62162 14.1255C5.62162 15.3675 6.62962 16.3755 7.87162 16.3755C9.11362 16.3755 10.1216 15.3675 10.1216 14.1255C10.1216 13.8173 10.0586 13.5237 9.94725 13.257C11.9993 13.9028 13.4966 15.7973 13.4966 18.063Z" fill="#0C8CE9"/>
<path d="M40.075 24V6.5H43.425L53.75 19.1H52.125V6.5H56.125V24H52.8L42.45 11.4H44.075V24H40.075ZM68.7654 24.3C67.3821 24.3 66.0988 24.075 64.9154 23.625C63.7488 23.175 62.7321 22.5417 61.8654 21.725C61.0154 20.9083 60.3488 19.95 59.8654 18.85C59.3988 17.75 59.1654 16.55 59.1654 15.25C59.1654 13.95 59.3988 12.75 59.8654 11.65C60.3488 10.55 61.0238 9.59167 61.8904 8.775C62.7571 7.95833 63.7738 7.325 64.9404 6.875C66.1071 6.425 67.3738 6.2 68.7404 6.2C70.1238 6.2 71.3904 6.425 72.5404 6.875C73.7071 7.325 74.7154 7.95833 75.5654 8.775C76.4321 9.59167 77.1071 10.55 77.5904 11.65C78.0738 12.7333 78.3154 13.9333 78.3154 15.25C78.3154 16.55 78.0738 17.7583 77.5904 18.875C77.1071 19.975 76.4321 20.9333 75.5654 21.75C74.7154 22.55 73.7071 23.175 72.5404 23.625C71.3904 24.075 70.1321 24.3 68.7654 24.3ZM68.7404 20.85C69.5238 20.85 70.2404 20.7167 70.8904 20.45C71.5571 20.1833 72.1404 19.8 72.6404 19.3C73.1404 18.8 73.5238 18.2083 73.7904 17.525C74.0738 16.8417 74.2154 16.0833 74.2154 15.25C74.2154 14.4167 74.0738 13.6583 73.7904 12.975C73.5238 12.2917 73.1404 11.7 72.6404 11.2C72.1571 10.7 71.5821 10.3167 70.9154 10.05C70.2488 9.78333 69.5238 9.65 68.7404 9.65C67.9571 9.65 67.2321 9.78333 66.5654 10.05C65.9154 10.3167 65.3404 10.7 64.8404 11.2C64.3404 11.7 63.9488 12.2917 63.6654 12.975C63.3988 13.6583 63.2654 14.4167 63.2654 15.25C63.2654 16.0667 63.3988 16.825 63.6654 17.525C63.9488 18.2083 64.3321 18.8 64.8154 19.3C65.3154 19.8 65.8988 20.1833 66.5654 20.45C67.2321 20.7167 67.9571 20.85 68.7404 20.85ZM84.74 24V9.8H79.14V6.5H94.39V9.8H88.79V24H84.74ZM96.5691 24V6.5H100.619V24H96.5691ZM113.272 24.3C111.889 24.3 110.606 24.075 109.422 23.625C108.256 23.175 107.239 22.5417 106.372 21.725C105.522 20.9083 104.856 19.95 104.372 18.85C103.906 17.75 103.672 16.55 103.672 15.25C103.672 13.95 103.906 12.75 104.372 11.65C104.856 10.55 105.531 9.59167 106.397 8.775C107.264 7.95833 108.281 7.325 109.447 6.875C110.614 6.425 111.881 6.2 113.247 6.2C114.631 6.2 115.897 6.425 117.047 6.875C118.214 7.325 119.222 7.95833 120.072 8.775C120.939 9.59167 121.614 10.55 122.097 11.65C122.581 12.7333 122.822 13.9333 122.822 15.25C122.822 16.55 122.581 17.7583 122.097 18.875C121.614 19.975 120.939 20.9333 120.072 21.75C119.222 22.55 118.214 23.175 117.047 23.625C115.897 24.075 114.639 24.3 113.272 24.3ZM113.247 20.85C114.031 20.85 114.747 20.7167 115.397 20.45C116.064 20.1833 116.647 19.8 117.147 19.3C117.647 18.8 118.031 18.2083 118.297 17.525C118.581 16.8417 118.722 16.0833 118.722 15.25C118.722 14.4167 118.581 13.6583 118.297 12.975C118.031 12.2917 117.647 11.7 117.147 11.2C116.664 10.7 116.089 10.3167 115.422 10.05C114.756 9.78333 114.031 9.65 113.247 9.65C112.464 9.65 111.739 9.78333 111.072 10.05C110.422 10.3167 109.847 10.7 109.347 11.2C108.847 11.7 108.456 12.2917 108.172 12.975C107.906 13.6583 107.772 14.4167 107.772 15.25C107.772 16.0667 107.906 16.825 108.172 17.525C108.456 18.2083 108.839 18.8 109.322 19.3C109.822 19.8 110.406 20.1833 111.072 20.45C111.739 20.7167 112.464 20.85 113.247 20.85Z" fill="#0C8CE9"/>
</svg>
