<svg width="39" height="39" viewBox="0 0 39 39" fill="none" xmlns="http://www.w3.org/2000/svg">
<path d="M9.02446 11.8587C9.29414 11.6789 9.42898 11.589 9.57486 11.5253C9.70434 11.4688 9.84003 11.4277 9.97912 11.4029C10.1358 11.375 10.2979 11.375 10.622 11.375H28.378C28.7021 11.375 28.8642 11.375 29.0209 11.4029C29.16 11.4277 29.2957 11.4688 29.4251 11.5253C29.571 11.589 29.7059 11.6789 29.9755 11.8587L32.8425 13.77C33.3114 14.0826 33.5459 14.2389 33.7156 14.4454C33.8658 14.6282 33.9786 14.8389 34.0473 15.0653C34.125 15.321 34.125 15.6028 34.125 16.1663V24.745C34.125 25.7531 34.125 26.2571 33.9288 26.6422C33.7562 26.9809 33.4809 27.2562 33.1422 27.4288C32.7571 27.625 32.2531 27.625 31.245 27.625H7.755C6.74691 27.625 6.24286 27.625 5.85782 27.4288C5.51913 27.2562 5.24376 26.9809 5.07119 26.6422C4.875 26.2571 4.875 25.7531 4.875 24.745V16.1663C4.875 15.6028 4.875 15.321 4.95267 15.0653C5.02143 14.8389 5.13417 14.6282 5.28442 14.4454C5.45414 14.2389 5.68858 14.0826 6.15746 13.77L9.02446 11.8587Z" stroke="#F80163" stroke-width="2"/>
<path d="M4.875 26.4375V17.2125C4.875 17.1297 4.94216 17.0625 5.025 17.0625H11.5585C12.4193 17.0625 13.1836 17.6134 13.4558 18.43L14.1692 20.57C14.4414 21.3866 15.2057 21.9375 16.0665 21.9375H22.9335C23.7943 21.9375 24.5586 21.3866 24.8308 20.57L25.5442 18.43C25.8164 17.6134 26.5807 17.0625 27.4415 17.0625H33.975C34.0578 17.0625 34.125 17.1297 34.125 17.2125V26.4375C34.125 27.5421 33.2296 28.4375 32.125 28.4375H6.875C5.77043 28.4375 4.875 27.5421 4.875 26.4375Z" fill="#F80163"/>
<circle cx="33.5" cy="3.5" r="3.5" fill="#F80163"/>
</svg>
