<svg width="40" height="40" viewBox="0 0 40 40" fill="none" xmlns="http://www.w3.org/2000/svg">
<path d="M22.1645 1.4624C20.9156 0.810568 19.2001 0.800778 17.9424 1.4503C12.5703 4.22476 7.70219 7.40357 3.43976 10.9257C2.87137 11.3953 2.49523 12.0527 2.50167 12.804C2.50809 13.5528 2.89277 14.2029 3.45929 14.6661C7.68741 18.1233 12.561 21.3058 17.8355 24.0587C19.0844 24.7105 20.7999 24.7203 22.0576 24.0708C27.4297 21.2963 32.2978 18.1175 36.5602 14.5954C37.1286 14.1257 37.5048 13.4684 37.4983 12.717C37.4919 11.9682 37.1072 11.3182 36.5407 10.855C32.3126 7.39782 27.439 4.21526 22.1645 1.4624Z" fill="white"/>
<path d="M38.6626 22.6072C39.3946 22.1502 39.6175 21.1863 39.1605 20.4543C38.7035 19.7223 37.7396 19.4994 37.0076 19.9564L24.2842 27.8999C23.1508 28.6075 21.611 29.0021 19.9996 29.0022C18.3883 29.0023 16.8483 28.6079 15.7147 27.9004L3.13063 20.0468C2.39856 19.5899 1.43472 19.813 0.977836 20.545C0.520952 21.2771 0.744037 22.241 1.47611 22.6978L14.0601 30.5515C15.7869 31.6292 17.9291 32.1273 19.9998 32.1272C22.0705 32.127 24.2126 31.6287 25.9392 30.5507L38.6626 22.6072Z" fill="white"/>
<path d="M38.6627 30.4295C39.3947 29.9724 39.6175 29.0085 39.1604 28.2765C38.7033 27.5446 37.7394 27.3218 37.0074 27.7789L25.9889 34.6598C24.3788 35.6653 22.225 36.2088 19.9995 36.209C17.7741 36.2091 15.6201 35.6658 14.0097 34.6605L3.13079 27.8692C2.39877 27.4122 1.43491 27.6352 0.977936 28.3672C0.520964 29.0992 0.743932 30.0631 1.47595 30.5201L12.3548 37.3114C14.5585 38.6871 17.3149 39.3341 19.9997 39.334C22.6845 39.3338 25.4408 38.6864 27.6442 37.3104L38.6627 30.4295Z" fill="white"/>
</svg>
