<svg width="25" height="26" viewBox="0 0 25 26" fill="none" xmlns="http://www.w3.org/2000/svg">
<path d="M14.3823 0.395228C13.9235 0.123119 13.3422 0.173744 12.9383 0.524322L2.74169 9.32927C-0.913898 13.03 -0.913898 19.0518 2.74169 22.7525C4.56824 24.6016 6.96738 25.5267 9.36777 25.5267C11.7732 25.5267 14.181 24.5978 16.0151 22.7398L24.6452 13.759C24.9953 13.3945 25.0953 12.8528 24.9003 12.3845C24.7065 11.9162 24.2527 11.6112 23.7501 11.6112H19.6232L24.8428 2.10129C25.1141 1.60643 25.0278 0.991337 24.634 0.5914C24.2402 0.191462 23.6301 0.104134 23.1437 0.38004L14.2548 5.37926L14.9749 1.73552C15.0787 1.20523 14.8412 0.668603 14.3823 0.395228ZM14.9987 16.0409C14.9987 19.186 12.4795 21.7362 9.37277 21.7362C6.26601 21.7362 3.74686 19.186 3.74686 16.0409C3.74686 14.0539 4.75577 12.3086 6.27852 11.2897C6.26601 11.396 6.24726 11.5011 6.24726 11.6112C6.24726 13.0084 7.36744 14.1424 8.74767 14.1424C10.1279 14.1424 11.2481 13.0084 11.2481 11.6112C11.2481 11.2644 11.1781 10.9341 11.0543 10.6341C13.3347 11.3606 14.9987 13.4919 14.9987 16.0409Z" fill="#4338CA"/>
</svg>
